# xmcd
#
# Track frame offsets: 
#        150
#        12222
#        22750
#        36275
#        43580
#        52057
#
# Disc length: 862 seconds
#
# Revision: 0
# Processed by: cddbd v1.4PL0 Copyright (c) Steve Scherf et al.
# Submitted via: ExactAudioCopy v0.90b4
#
DISCID=41035c06
DTITLE=The Dirtbombs - Chariots of the Gods?
DYEAR=2001
DGENRE=Alternative
TTITLE0=Encrypted
TTITLE1=Your Love Belongs Under A Rock
TTITLE2=Mystery Train
TTITLE3=They Hate Us In Scandinavia
TTITLE4=Words That Hurt
TTITLE5=Candy Ass
EXTD=Recorded Summer 1999 at the Ghetto Recorder, Detroit MI\nEngineer
EXTD=ed by Jim Diamond\nProduced by Mick Collins\nSpecial Production H
EXTD=elp: Pat Haggood, Nate Johnson\nCover Concept by Mick\nLayout by 
EXTD=Ballistic\n\n\nI sang and played guitar on everything, Jim Diamon
EXTD=d played bass on everything, \nJoe Greenwall played fuzz on "Encr
EXTD=ypted", Dion Fischer played fuzz on everything\nelse - the drums w
EXTD=ere an ever-changing combination of Chris Handyside, Ewolf,\nPat 
EXTD=Pantano, and special guest Gisela Albertini.\n\nSpecial Thanks to
EXTD=Greta, Fionna, Scotti, and everybody at Au Go Go for being so pa
EXTD=tient.\n\nOh yeah and thanks to Jimmy Chin for track 2. Number 2 
EXTD=in the "no series" series\n\nThis record started with a broken wr
EXTD=ist, and ended with near-bankruptcy and a\ndisgustingly late rele
EXTD=ase. There will be plenty of "Fuck You" on the next record,\nrigh
EXTD=t now I'm merely grateful.\n                                     
EXTD=                             -Mick
EXTT0=
EXTT1=
EXTT2=
EXTT3=
EXTT4=
EXTT5=
PLAYORDER=
